<svg width="30" height="25" viewBox="0 0 30 25" xmlns="http://www.w3.org/2000/svg" version="1.1">
 <g>
  <title>Layer 1</title>
  <path d="m25.9454,13.29672c-0.16106,-3.00716 -1.7654,-5.78198 -4.29784,-7.43121l1.50577,-2.60853l-0.43045,-0.24915c-1.88818,-1.0929 -4.04135,-1.67041 -6.22846,-1.67041c-2.01968,0 -4.00775,0.49874 -5.78824,1.43504l-1.50333,-2.60363l-0.43156,0.25004c-4.76477,2.75665 -7.72392,7.88224 -7.72392,13.37606l0,0.4983l8.99103,0c0.15194,1.9449 1.18544,3.7328 2.79936,4.83994l-1.50446,2.60562l0.43045,0.24915c1.44085,0.83378 3.07721,1.27468 4.73117,1.27468c1.48801,0 2.96087,-0.35971 4.29135,-1.03954l1.50577,2.60807l0.43156,-0.25004c3.84248,-2.2219 6.22902,-6.35545 6.22902,-10.78604l0,-0.4983l-3.00722,-0.00006zm-0.99461,0l-7.59294,0l3.79265,-6.56958c2.2268,1.47041 3.6418,3.91652 3.8004,6.56958l-0.00011,0zm-13.74907,-9.66587c1.62884,-0.85001 3.44829,-1.29649 5.29285,-1.29649s3.66452,0.44691 5.29285,1.29649l-5.29285,9.16757l-3.27545,-5.67304l-2.0174,-3.49453zm-2.35801,-2.09172l6.78769,11.75758l-13.5788,0c0.16706,-4.78413 2.72487,-9.21312 6.79111,-11.75758zm2.19252,12.75418l4.59523,0l-1.70378,2.95084l-0.59152,1.02439c-1.30828,-0.92564 -2.15248,-2.38517 -2.29998,-3.97529l0.00006,0.00006zm9.25242,7.06901c-2.35693,1.18544 -5.2306,1.18504 -7.58838,0.00044l0.98817,-1.71159l0.6618,-1.14563l2.14468,-3.7139l3.06252,5.30401l0.73122,1.26666zm2.36205,2.09775l-5.29245,-9.16643l10.58672,0c-0.16439,3.72033 -2.14958,7.15842 -5.29444,9.16643l0.00017,0z" id="svg_15"/>
 </g>

</svg>